<svg width="64" height="64" viewBox="0 0 64 64" fill="none" xmlns="http://www.w3.org/2000/svg">
<path d="M32 60C47.464 60 60 47.464 60 32C60 16.536 47.464 4 32 4C16.536 4 4 16.536 4 32C4 47.464 16.536 60 32 60Z" fill="url(#paint0_linear_56_111)"/>
<path d="M15.6532 31.7572L34.5087 23.9884C36.3699 23.1792 42.6821 20.5896 42.6821 20.5896C42.6821 20.5896 45.5954 19.4566 45.3526 22.2081C45.2717 23.341 44.6243 27.3064 43.9769 31.5954L41.9538 44.3006C41.9538 44.3006 41.7919 46.1618 40.4162 46.4855C39.0405 46.8092 36.7746 45.3526 36.3699 45.0289C36.0462 44.7861 30.3006 41.1445 28.1965 39.3642C27.6301 38.8786 26.9827 37.9075 28.2775 36.7746C31.1908 34.104 34.6705 30.7861 36.7746 28.6821C37.7457 27.711 38.7168 25.4451 34.6705 28.1965L23.2601 35.8844C23.2601 35.8844 21.9653 36.6936 19.5376 35.9653C17.1098 35.237 14.2775 34.2659 14.2775 34.2659C14.2775 34.2659 12.3353 33.052 15.6532 31.7572V31.7572Z" fill="white"/>
<defs>
<linearGradient id="paint0_linear_56_111" x1="41.3355" y1="13.3355" x2="27.3355" y2="46" gradientUnits="userSpaceOnUse">
<stop stop-color="#37AEE2"/>
<stop offset="1" stop-color="#1E96C8"/>
</linearGradient>
</defs>
</svg>
