<svg width="64" height="64" viewBox="0 0 64 64" fill="none" xmlns="http://www.w3.org/2000/svg">
<path d="M10.7856 10.7869C16.4122 5.15906 24.0432 1.9975 32 1.99756C39.9568 1.99756 47.5878 5.15914 53.2143 10.7869C58.8409 16.4147 62.0021 24.0479 62.0024 32.0071C62.0024 39.9625 58.843 47.592 53.2192 53.2172C47.5955 58.8423 39.9683 62.0024 32.0154 62.0024H31.9844C28.0465 62.0025 24.1471 61.2267 20.509 59.7193C16.8708 58.212 13.5651 56.0025 10.7805 53.2172C7.99595 50.4319 5.78709 47.1252 4.2801 43.486C2.7731 39.8467 1.9975 35.9462 1.99756 32.0071C1.99781 24.0478 5.15901 16.4147 10.7856 10.7869Z" stroke="#F0F0F0" stroke-width="3.99512"/>
<path d="M15.0761 31.1941L35.2473 22.8832C37.2384 22.0175 43.991 19.2472 43.991 19.2472C43.991 19.2472 47.1076 18.0352 46.8479 20.9786C46.7613 22.1906 46.0687 26.4326 45.3762 31.0209L43.2119 44.6127C43.2119 44.6127 43.0387 46.6038 41.567 46.9501C40.0953 47.2964 37.6713 45.7381 37.2384 45.3918C36.8921 45.1321 30.7455 41.2364 28.4947 39.3318C27.8887 38.8124 27.1961 37.7735 28.5813 36.5615C31.6978 33.7047 35.4204 30.1552 37.6713 27.9044C38.7101 26.8655 39.749 24.4415 35.4204 27.3849L23.2138 35.6092C23.2138 35.6092 21.8287 36.475 19.2315 35.6958C16.6344 34.9167 13.6044 33.8778 13.6044 33.8778C13.6044 33.8778 11.5266 32.5792 15.0761 31.1941V31.1941Z" fill="#F0F0F0"/>
</svg>
