<svg width="64" height="64" viewBox="0 0 64 64" fill="none" xmlns="http://www.w3.org/2000/svg">
<path fill-rule="evenodd" clip-rule="evenodd" d="M64 32.0071C63.9997 23.5182 60.6281 15.3771 54.627 9.3746C48.6258 3.37215 40.4867 0 32 0C23.5133 0 15.3742 3.37215 9.37303 9.3746C3.3719 15.3771 0.000334454 23.5182 9.94468e-10 32.0071C-3.31198e-05 36.2084 0.827248 40.3687 2.4346 44.2502C4.04195 48.1318 6.39789 51.6586 9.36792 54.6295C12.3379 57.6003 15.8639 59.9569 19.7444 61.5647C23.625 63.1725 27.7841 64 31.9844 64H32.0154C36.2157 64 40.3748 63.1725 44.2554 61.5647C48.1359 59.9569 51.6619 57.6003 54.6319 54.6295C57.602 51.6586 59.9579 48.1318 61.5653 44.2502C63.1727 40.3687 64 36.2085 64 32.0071ZM3.99512 32.0072C3.99511 35.684 4.71911 39.3248 6.12576 42.7217C7.53242 46.1186 9.59418 49.2051 12.1933 51.8049C14.7924 54.4047 17.8779 56.4669 21.2736 57.8738C24.6694 59.2808 28.3089 60.0049 31.9844 60.0049H32.0154C35.6909 60.0049 39.3304 59.2808 42.7262 57.8738C46.1219 56.4669 49.2074 54.4047 51.8066 51.8049C54.4057 49.2051 56.4675 46.1186 57.8742 42.7217C59.2808 39.3248 60.0049 35.6841 60.0049 32.0072M3.99512 32.0071C3.99544 24.5775 6.94633 17.4524 12.1983 12.1993C17.4503 6.94612 24.5732 3.99512 32 3.99512C39.4268 3.99512 46.5497 6.94612 51.8017 12.1993C57.0537 17.4524 60.0045 24.5774 60.0049 32.0071" fill="#F0F0F0"/>
<path fill-rule="evenodd" clip-rule="evenodd" d="M38.1068 15C38.6648 19.8248 41.3432 22.7013 46 23.0073V28.4338C43.3013 28.699 40.9374 27.8116 38.188 26.1388V36.2881C38.188 49.1813 24.2075 53.2104 18.5868 43.9689C14.975 38.0221 17.1868 27.5872 28.7729 27.169V32.8914C27.8903 33.0342 26.9467 33.2586 26.0844 33.5544C23.5074 34.4316 22.0465 36.0739 22.4523 38.9708C23.2335 44.5198 33.3587 46.162 32.5166 35.3191V15.0102H38.1068V15Z" fill="#F0F0F0"/>
</svg>
