<svg width="64" height="64" viewBox="0 0 64 64" fill="none" xmlns="http://www.w3.org/2000/svg">
<path fill-rule="evenodd" clip-rule="evenodd" d="M31.766 58.5446H31.7551C27.3597 58.543 23.0407 57.4402 19.2048 55.3479L5.28241 59L9.00826 45.3909C6.70997 41.4079 5.50063 36.89 5.5026 32.2612C5.50836 17.7809 17.2899 6 31.7657 6C38.7914 6.00303 45.3854 8.73808 50.3438 13.7023C55.3023 18.6663 58.0315 25.2646 58.0287 32.2819C58.0229 46.759 46.2461 58.5387 31.766 58.5446ZM19.8498 50.5935L20.6469 51.0666C23.9984 53.0554 27.8402 54.1078 31.7572 54.1093H31.766C43.7973 54.1093 53.5896 44.3168 53.5944 32.2805C53.5967 26.4478 51.3283 20.9636 47.2071 16.8375C43.0858 12.7114 37.6051 10.438 31.7746 10.436C19.734 10.436 9.94161 20.2275 9.93684 32.2628C9.93514 36.3875 11.0892 40.4043 13.2743 43.8797L13.7933 44.7056L11.5881 52.7607L19.8498 50.5935ZM44.0983 37.9362C44.556 38.1574 44.8651 38.3068 44.9971 38.5271C45.1611 38.8007 45.1611 40.1146 44.6145 41.6477C44.0674 43.1805 41.4458 44.5795 40.1849 44.7678C39.0544 44.9369 37.6237 45.0074 36.0518 44.5078C35.0987 44.2054 33.8764 43.8016 32.3108 43.1255C26.1588 40.4691 22.0014 34.5065 21.2157 33.3796C21.1606 33.3007 21.1221 33.2455 21.1006 33.2168L21.0954 33.2098C20.7481 32.7464 18.4211 29.6417 18.4211 26.4284C18.4211 23.4057 19.9059 21.8214 20.5894 21.0921C20.6362 21.0421 20.6793 20.9962 20.7179 20.954C21.3193 20.2971 22.0303 20.1328 22.4678 20.1328C22.9052 20.1328 23.3431 20.1369 23.7255 20.1561C23.7727 20.1584 23.8217 20.1581 23.8725 20.1578C24.2549 20.1556 24.7316 20.1528 25.2019 21.2825C25.3829 21.7173 25.6477 22.3619 25.9269 23.0418C26.4916 24.4164 27.1154 25.9352 27.2252 26.155C27.3893 26.4835 27.4986 26.8666 27.2799 27.3047C27.2471 27.3704 27.2167 27.4324 27.1877 27.4917C27.0234 27.8271 26.9025 28.0738 26.6237 28.3994C26.514 28.5274 26.4007 28.6654 26.2874 28.8034C26.0616 29.0783 25.8359 29.3533 25.6393 29.5491C25.3108 29.8763 24.9688 30.2313 25.3516 30.8883C25.7344 31.5453 27.0514 33.6941 29.0022 35.4342C31.0993 37.3047 32.9219 38.0953 33.8457 38.496C34.0261 38.5743 34.1723 38.6376 34.2795 38.6913C34.9354 39.0199 35.3183 38.9649 35.7011 38.5271C36.0839 38.0891 37.3415 36.6109 37.7789 35.954C38.2163 35.2973 38.6539 35.4067 39.2553 35.6256C39.857 35.8448 43.0832 37.4321 43.7395 37.7605C43.8676 37.8247 43.9873 37.8826 44.0983 37.9362Z" fill="#25D366"/>
</svg>
