<svg width="64" height="64" viewBox="0 0 64 64" fill="none" xmlns="http://www.w3.org/2000/svg">
<path fill-rule="evenodd" clip-rule="evenodd" d="M64 32.0071C63.9997 23.5182 60.6281 15.3771 54.627 9.3746C48.6258 3.37215 40.4867 0 32 0C23.5133 0 15.3742 3.37215 9.37303 9.3746C3.3719 15.3771 0.000334454 23.5182 9.94468e-10 32.0071C-3.31198e-05 36.2084 0.827248 40.3687 2.4346 44.2502C4.04195 48.1318 6.39789 51.6586 9.36792 54.6295C12.3379 57.6003 15.8639 59.9569 19.7444 61.5647C23.625 63.1725 27.7841 64 31.9844 64H32.0154C36.2157 64 40.3748 63.1725 44.2554 61.5647C48.1359 59.9569 51.6619 57.6003 54.6319 54.6295C57.602 51.6586 59.9579 48.1318 61.5653 44.2502C63.1727 40.3687 64 36.2085 64 32.0071ZM3.99512 32.0072C3.99511 35.684 4.71911 39.3248 6.12576 42.7217C7.53242 46.1186 9.59418 49.2051 12.1933 51.8049C14.7924 54.4047 17.8779 56.4669 21.2736 57.8738C24.6694 59.2808 28.3089 60.0049 31.9844 60.0049H32.0154C35.6909 60.0049 39.3304 59.2808 42.7262 57.8738C46.1219 56.4669 49.2074 54.4047 51.8066 51.8049C54.4057 49.2051 56.4675 46.1186 57.8742 42.7217C59.2808 39.3248 60.0049 35.6841 60.0049 32.0072M3.99512 32.0071C3.99544 24.5775 6.94633 17.4524 12.1983 12.1993C17.4503 6.94612 24.5732 3.99512 32 3.99512C39.4268 3.99512 46.5497 6.94612 51.8017 12.1993C57.0537 17.4524 60.0045 24.5774 60.0049 32.0071" fill="#F0F0F0"/>
<path fill-rule="evenodd" clip-rule="evenodd" d="M32.5882 47.9215H32.5814C29.8275 47.9205 27.1215 47.2296 24.7181 45.9186L15.9951 48.2068L18.3295 39.6801C16.8895 37.1846 16.1318 34.3539 16.1331 31.4538C16.1367 22.3812 23.5183 15 32.5881 15C36.9899 15.0019 41.1214 16.7155 44.2281 19.8258C47.3347 22.936 49.0447 27.0701 49.043 31.4668C49.0393 40.5373 41.6606 47.9178 32.5882 47.9215ZM25.1222 42.9397L25.6216 43.2361C27.7214 44.4822 30.1285 45.1416 32.5827 45.1425H32.5882C40.1263 45.1425 46.2616 39.0071 46.2646 31.4659C46.2661 27.8114 44.8448 24.3753 42.2627 21.7901C39.6805 19.2049 36.2466 17.7806 32.5936 17.7793C25.0496 17.7793 18.9142 23.9141 18.9113 31.4548C18.9102 34.039 19.6333 36.5558 21.0023 38.7333L21.3275 39.2507L19.9459 44.2976L25.1222 42.9397ZM40.3149 35.0095C40.6017 35.1481 40.7953 35.2416 40.878 35.3797C40.9808 35.5511 40.9808 36.3743 40.6383 37.3349C40.2956 38.2952 38.653 39.1718 37.863 39.2898C37.1547 39.3957 36.2583 39.4399 35.2734 39.1268C34.6763 38.9374 33.9105 38.6844 32.9295 38.2608C29.0751 36.5964 26.4703 32.8606 25.9779 32.1546C25.9435 32.1051 25.9193 32.0705 25.9059 32.0525L25.9026 32.0481C25.685 31.7578 24.2271 29.8126 24.2271 27.7993C24.2271 25.9055 25.1573 24.9128 25.5856 24.4559C25.6149 24.4246 25.6419 24.3958 25.666 24.3694C26.0429 23.9578 26.4884 23.8549 26.7624 23.8549C27.0365 23.8549 27.3109 23.8574 27.5505 23.8694C27.58 23.8709 27.6108 23.8707 27.6425 23.8705C27.8821 23.8691 28.1808 23.8674 28.4755 24.5752C28.5889 24.8476 28.7548 25.2514 28.9297 25.6773C29.2835 26.5387 29.6744 27.4903 29.7432 27.628C29.846 27.8339 29.9145 28.0739 29.7774 28.3484C29.7569 28.3895 29.7378 28.4284 29.7197 28.4655C29.6167 28.6757 29.541 28.8302 29.3663 29.0342C29.2976 29.1144 29.2266 29.2009 29.1556 29.2874C29.0142 29.4596 28.8727 29.6319 28.7496 29.7546C28.5437 29.9596 28.3295 30.182 28.5693 30.5936C28.8091 31.0053 29.6343 32.3516 30.8566 33.4419C32.1705 34.6138 33.3124 35.1091 33.8912 35.3602C34.0043 35.4092 34.0958 35.4489 34.163 35.4826C34.574 35.6884 34.8138 35.654 35.0537 35.3797C35.2935 35.1053 36.0815 34.1791 36.3555 33.7675C36.6296 33.3561 36.9038 33.4246 37.2806 33.5617C37.6575 33.6991 39.6789 34.6936 40.0901 34.8994C40.1703 34.9396 40.2454 34.9759 40.3149 35.0095Z" fill="#F0F0F0"/>
</svg>
